<?xml version="1.0" encoding="UTF-8" standalone="no"?>
<!DOCTYPE svg PUBLIC "-//W3C//DTD SVG 1.1//EN" "http://www.w3.org/Graphics/SVG/1.1/DTD/svg11.dtd">
<svg width="100%" height="100%" viewBox="0 0 800 800" version="1.1" xmlns="http://www.w3.org/2000/svg" xmlns:xlink="http://www.w3.org/1999/xlink" xml:space="preserve" xmlns:serif="http://www.serif.com/" style="fill-rule:evenodd;clip-rule:evenodd;stroke-linejoin:round;stroke-miterlimit:2;">
    <g transform="matrix(16.666667,0,0,16.666667,0,0)">
        <clipPath id="_clip1">
            <path d="M33.157,41.037C37.502,41.037 41.023,37.516 41.023,33.171C41.023,28.826 37.502,25.305 33.157,25.305C28.812,25.305 25.291,28.826 25.291,33.171C25.291,37.516 28.812,41.037 33.157,41.037ZM33.195,22.69C37.54,22.69 41.06,19.17 41.06,14.824C41.06,10.479 37.54,6.963 33.195,6.963C28.849,6.963 25.329,10.484 25.329,14.829C25.329,19.174 28.849,22.69 33.195,22.69ZM22.676,33.171C22.676,28.826 19.155,25.305 14.81,25.305C10.465,25.305 6.94,28.826 6.94,33.171C6.94,37.516 10.46,41.037 14.805,41.037C19.151,41.037 22.676,37.516 22.676,33.171ZM14.805,22.69C19.151,22.69 22.671,19.17 22.671,14.824C22.671,10.479 19.151,6.963 14.805,6.963C10.46,6.963 6.94,10.484 6.94,14.824C6.94,19.165 10.465,22.69 14.805,22.69Z" clip-rule="nonzero"/>
        </clipPath>
        <g clip-path="url(#_clip1)">
            <circle cx="24" cy="24" r="24" style="fill:url(#_Linear2);"/>
        </g>
    </g>
    <g transform="matrix(0.78125,0,0,0.78125,0.820312,66.757812)">
        <path d="M314.8,342.6C253,342.6 203,292.6 203,230.8C203,169 253.1,119 314.8,119C376.5,119 426.6,169 426.6,230.8C426.6,292.6 376.6,342.6 314.8,342.6ZM314.8,734C253,734 203,684 203,622.2C203,560.5 253.1,510.4 314.8,510.4C376.5,510.4 426.6,560.4 426.6,622.2C426.7,683.9 376.6,734 314.8,734ZM707.1,342.6C645.3,342.6 595.3,292.6 595.3,230.8C595.3,169 645.4,119 707.1,119C768.9,119 818.9,169 818.9,230.8C818.9,292.6 768.8,342.6 707.1,342.6ZM706.3,734C644.5,734 594.5,684 594.5,622.2C594.5,560.5 644.6,510.4 706.3,510.4C768.1,510.4 818.1,560.4 818.1,622.2C818.1,683.9 768,734 706.3,734Z" style="fill:white;fill-rule:nonzero;"/>
    </g>
    <defs>
        <linearGradient id="_Linear2" x1="0" y1="0" x2="1" y2="0" gradientUnits="userSpaceOnUse" gradientTransform="matrix(-7.237543,-18,18,-7.237543,35,40)"><stop offset="0" style="stop-color:rgb(141,129,140);stop-opacity:1"/><stop offset="0.47" style="stop-color:rgb(152,144,156);stop-opacity:1"/><stop offset="1" style="stop-color:rgb(180,184,197);stop-opacity:1"/></linearGradient>
    </defs>
</svg>
